<?xml version="1.0" encoding="UTF-8" standalone="no"?>
<!-- Created with Inkscape (http://www.inkscape.org/) -->

<svg
   width="1920"
   height="1280"
   viewBox="0 0 507.99999 338.66666"
   version="1.1"
   id="svg5"
   xml:space="preserve"
   xmlns="http://www.w3.org/2000/svg"
   xmlns:svg="http://www.w3.org/2000/svg"><defs
     id="defs2" /><g
     id="layer1"><path
       style="fill:#0f3453;stroke:none;stroke-width:0.262923"
       d="m 20.980394,51.693192 c -3.269524,0.693327 -5.6566,2.874535 -8.676453,3.885999 -2.002946,0.670716 -4.5284246,0.322343 -6.0766456,2.060263 C 2.7051407,61.592499 3.3383679,65.879456 2.763657,70.750365 1.3926208,82.370239 2.5757971,94.800179 2.5757971,106.50787 c 0,56.20449 -1.4152294,112.69556 1.0413452,168.79646 0.3412344,7.79303 -0.057617,15.6071 0.2836149,23.40013 0.3097467,7.07263 1.0102309,14.76575 0.1775149,21.8226 -0.4958093,4.20151 -0.3834124,8.42668 -1.1381166,12.62029 -0.2065085,1.14898 -0.9458096,3.56261 0.057212,4.5065 1.4115248,1.33039 6.1501064,0.48904 7.9919595,0.48904 h 22.085516 c 29.499414,0 59.159474,0.77299 88.604987,-0.51533 30.69361,-1.34354 61.55575,-0.43382 92.28591,-0.79929 61.76057,-0.73618 123.55532,-0.78876 185.36058,-0.78876 26.3475,0 52.78964,0.52584 79.13977,0.52584 6.37588,0 12.85955,-0.14724 19.19336,0.60209 2.0955,0.24715 7.20672,1.64853 9.08924,0.80718 1.02015,-0.45749 0.63891,-2.6266 0.63891,-3.51265 v -10.51691 -44.69689 c 0,-43.04756 -0.59421,-86.04596 -0.52585,-129.09511 0.0184,-11.03329 0.52585,-22.07973 0.52585,-33.12828 V 78.375127 c 0,-3.416157 1.48288,-11.095607 -2.14808,-13.06227 -1.81154,-0.980702 -4.7405,-1.073514 -6.7913,-1.874902 C 485.94361,58.549693 472.08758,56.731056 458.74688,55.456143 430.49319,52.756189 402.18955,53.036727 373.82281,52.341822 292.96353,50.361224 211.9812,53.223928 131.14505,54.185174 107.32241,54.468605 83.422196,54.955012 59.630047,53.913049 51.401878,53.552582 43.118232,53.094833 34.915303,52.301069 30.52344,51.876186 25.361372,50.764022 20.980394,51.693192 Z"
       id="path179" /></g></svg>
