<?xml version="1.0" encoding="iso-8859-1"?>
<!-- Generator: Adobe Illustrator 19.0.0, SVG Export Plug-In . SVG Version: 6.00 Build 0)  -->
<svg version="1.1" id="Layer_1" xmlns="http://www.w3.org/2000/svg" xmlns:xlink="http://www.w3.org/1999/xlink" x="0px" y="0px"
	 viewBox="0 0 512 512" style="enable-background:new 0 0 512 512;" xml:space="preserve">
<path style="fill:#FEF2CC;" d="M504.026,192.374C475.738,81.771,375.42,0,256,0C114.615,0,0,114.616,0,256
	c0,122.034,85.394,224.112,199.683,249.77L504.026,192.374z"/>
<path style="fill:#FDE59A;" d="M512,256c0-21.965-2.77-43.282-7.974-63.626l-58.809-58.809L33.391,278.261l67.71,67.71
	l-12.058,10.203l63.073,63.073l-7.421,31.536l54.988,54.988C217.806,509.84,236.65,512,256,512C397.385,512,512,397.384,512,256z"/>
<polygon style="fill:#4C6460;" points="211.478,406.261 211.478,450.783 144.696,450.783 144.696,406.261 178.087,384 "/>
<polygon style="fill:#889391;" points="189.217,406.261 189.217,428.522 166.957,428.522 166.957,406.261 178.087,384 "/>
<g>
	<rect x="144.696" y="345.043" style="fill:#394B48;" width="66.783" height="61.217"/>
	<polygon style="fill:#394B48;" points="422.957,256 422.957,311.652 256,311.652 233.739,256 	"/>
</g>
<polygon style="fill:#4C6460;" points="256,256 256,311.652 211.478,356.174 89.043,356.174 89.043,333.913 100.174,322.783 
	89.043,311.652 89.043,256 "/>
<path style="fill:#F9BE02;" d="M256,55.652L211.478,256l233.739-11.13C445.217,140.535,360.334,55.652,256,55.652z"/>
<path style="fill:#FBD867;" d="M66.783,244.87L256,256V55.652C151.666,55.652,66.783,140.535,66.783,244.87z"/>
<rect x="408.921" y="133.565" style="fill:#F9BE02;" width="36.294" height="122.435"/>
<path style="fill:#FBD867;" d="M256,77.913l-44.522,183.652l211.478-16.696C422.957,152.81,348.06,77.913,256,77.913z"/>
<path style="fill:#FDE59A;" d="M89.043,244.87L256,261.565V77.913C163.94,77.913,89.043,152.81,89.043,244.87z"/>
<polygon style="fill:#F9BE02;" points="478.609,278.261 256,278.261 233.739,239.304 256,200.348 311.652,200.348 311.652,244.87 
	445.217,244.87 "/>
<polygon style="fill:#FBD867;" points="256,200.348 256,278.261 33.391,278.261 66.783,244.87 200.348,244.87 200.348,200.348 "/>
<rect x="89.043" y="311.652" style="fill:#889391;" width="100.174" height="22.261"/>
<g>
	<rect x="155.826" y="155.826" style="fill:#FBD867;" width="22.261" height="22.261"/>
	<rect x="200.348" y="133.565" style="fill:#FBD867;" width="22.261" height="22.261"/>
</g>
<g>
</g>
<g>
</g>
<g>
</g>
<g>
</g>
<g>
</g>
<g>
</g>
<g>
</g>
<g>
</g>
<g>
</g>
<g>
</g>
<g>
</g>
<g>
</g>
<g>
</g>
<g>
</g>
<g>
</g>
</svg>
