<?xml version="1.0" encoding="UTF-8" standalone="no"?>
<!-- Created with Inkscape (http://www.inkscape.org/) -->

<svg
   width="47.476833mm"
   height="26.67mm"
   viewBox="0 0 47.476833 26.67"
   version="1.1"
   id="svg600"
   xmlns="http://www.w3.org/2000/svg"
   xmlns:svg="http://www.w3.org/2000/svg">
  <defs
     id="defs597" />
  <g
     id="layer1"
     transform="translate(-150.7908,-12.694214)">
    <g
       id="g98"
       transform="matrix(0.26458333,0,0,0.26458333,138.06699,1.6081721)">
	<g
   id="g28">
		<path
   class="st1"
   d="m 64.22,114.49 c -1.26,-0.83 -2.75,-1.23 -4.35,-1.23 -4.07,0 -6.65,3.07 -6.65,6.65 0,3.67 2.58,6.76 6.65,6.76 1.6,0 3.09,-0.4 4.35,-1.23 l 2.26,3.78 c -2.26,1.49 -4.38,2.12 -6.79,2.12 -6.96,0 -11.6,-5.1 -11.6,-11.4 0,-6.27 4.64,-11.34 11.6,-11.34 2.41,0 4.47,0.6 6.79,2.12 z"
   id="path8"
   style="fill:#105584" />

		<path
   class="st1"
   d="m 90.27,119.93 c 0,6.3 -5.21,11.4 -11.83,11.4 -6.67,0 -11.86,-5.1 -11.86,-11.4 0,-6.27 5.18,-11.34 11.86,-11.34 6.61,-0.01 11.83,5.06 11.83,11.34 z m -18.57,0.03 c 0,3.7 2.92,6.7 6.73,6.7 3.78,0 6.7,-3.01 6.7,-6.7 0,-3.72 -2.92,-6.7 -6.7,-6.7 -3.81,-0.01 -6.73,2.97 -6.73,6.7 z"
   id="path10"
   style="fill:#105584" />

		<path
   class="st1"
   d="m 97.49,117.89 v 12.75 h -5.1 v -21.37 h 4.9 l 9.28,12.78 v -12.78 h 5.1 v 21.37 h -4.87 z"
   id="path12"
   style="fill:#105584" />

		<path
   class="st1"
   d="m 114.53,109.27 h 13.03 v 4.5 h -7.94 v 4.55 h 6.96 v 4.5 h -6.96 v 7.82 h -5.1 v -21.37 z"
   id="path14"
   style="fill:#105584" />

		<path
   class="st1"
   d="m 129.86,109.27 h 5.1 v 21.37 h -5.1 z"
   id="path16"
   style="fill:#105584" />

		<path
   class="st1"
   d="m 137.82,109.27 h 6.44 c 5.9,0 11.34,3.18 11.34,10.66 0,7.56 -5.33,10.71 -11.29,10.71 h -6.5 v -21.37 z m 5.1,16.76 h 1.63 c 3.18,0 5.96,-2.01 5.96,-6.1 0,-4.04 -2.78,-6.02 -5.96,-6.04 h -1.63 z"
   id="path18"
   style="fill:#105584" />

		<path
   class="st1"
   d="m 157.91,109.27 h 12.37 v 4.5 H 163 v 3.92 h 6.53 v 4.1 H 163 v 4.35 h 7.5 v 4.5 h -12.6 v -21.37 z"
   id="path20"
   style="fill:#105584" />

		<path
   class="st1"
   d="m 178.25,117.89 v 12.75 h -5.1 v -21.37 h 4.9 l 9.28,12.78 v -12.78 h 5.1 v 21.37 h -4.87 z"
   id="path22"
   style="fill:#105584" />

		<path
   class="st1"
   d="m 210.68,114.49 c -1.26,-0.83 -2.75,-1.23 -4.35,-1.23 -4.07,0 -6.65,3.07 -6.65,6.65 0,3.67 2.58,6.76 6.65,6.76 1.6,0 3.09,-0.4 4.35,-1.23 l 2.26,3.78 c -2.26,1.49 -4.38,2.12 -6.79,2.12 -6.96,0 -11.6,-5.1 -11.6,-11.4 0,-6.27 4.64,-11.34 11.6,-11.34 2.41,0 4.47,0.6 6.79,2.12 z"
   id="path24"
   style="fill:#105584" />

		<path
   class="st1"
   d="m 214.92,109.27 h 12.38 v 4.5 h -7.28 v 3.92 h 6.53 v 4.1 h -6.53 v 4.35 h 7.51 v 4.5 h -12.6 v -21.37 z"
   id="path26"
   style="fill:#105584" />

	</g>

	<g
   id="g52">
		<path
   class="st1"
   d="m 93.86,142.28 c -0.49,-0.27 -0.88,-0.64 -1.16,-1.12 -0.28,-0.47 -0.42,-1.01 -0.42,-1.61 0,-0.6 0.14,-1.13 0.43,-1.61 0.28,-0.47 0.67,-0.85 1.17,-1.12 0.49,-0.27 1.05,-0.4 1.66,-0.4 0.5,0 0.95,0.09 1.36,0.26 0.41,0.17 0.76,0.43 1.04,0.76 l -0.73,0.69 c -0.44,-0.47 -0.98,-0.71 -1.62,-0.71 -0.42,0 -0.79,0.09 -1.12,0.27 -0.33,0.18 -0.59,0.44 -0.77,0.76 -0.19,0.32 -0.28,0.69 -0.28,1.1 0,0.41 0.09,0.78 0.28,1.1 0.18,0.32 0.44,0.58 0.77,0.76 0.33,0.18 0.7,0.27 1.12,0.27 0.64,0 1.18,-0.24 1.62,-0.72 l 0.73,0.69 c -0.28,0.33 -0.63,0.58 -1.05,0.76 -0.41,0.17 -0.87,0.26 -1.37,0.26 -0.61,0.02 -1.16,-0.12 -1.66,-0.39 z"
   id="path30"
   style="fill:#105584" />

		<path
   class="st1"
   d="m 101.93,142.28 c -0.5,-0.27 -0.89,-0.64 -1.17,-1.12 -0.28,-0.48 -0.43,-1.01 -0.43,-1.6 0,-0.59 0.14,-1.12 0.43,-1.6 0.28,-0.48 0.67,-0.85 1.17,-1.12 0.5,-0.27 1.06,-0.4 1.68,-0.4 0.62,0 1.18,0.13 1.68,0.4 0.5,0.27 0.89,0.64 1.17,1.12 0.28,0.48 0.43,1.01 0.43,1.61 0,0.6 -0.14,1.13 -0.43,1.61 -0.28,0.48 -0.67,0.85 -1.17,1.12 -0.5,0.27 -1.06,0.4 -1.68,0.4 -0.62,-0.01 -1.18,-0.15 -1.68,-0.42 z m 2.77,-0.86 c 0.32,-0.18 0.58,-0.44 0.76,-0.76 0.19,-0.33 0.28,-0.69 0.28,-1.1 0,-0.4 -0.09,-0.77 -0.28,-1.1 -0.19,-0.33 -0.44,-0.58 -0.76,-0.76 -0.32,-0.18 -0.69,-0.27 -1.09,-0.27 -0.4,0 -0.77,0.09 -1.09,0.27 -0.32,0.18 -0.58,0.44 -0.76,0.76 -0.19,0.33 -0.28,0.69 -0.28,1.1 0,0.41 0.09,0.77 0.28,1.1 0.19,0.33 0.44,0.58 0.76,0.76 0.32,0.18 0.69,0.27 1.09,0.27 0.41,0.01 0.77,-0.09 1.09,-0.27 z"
   id="path32"
   style="fill:#105584" />

		<path
   class="st1"
   d="m 115.71,136.52 v 6.08 h -0.93 l -3.35,-4.12 v 4.12 h -1.12 v -6.08 h 0.93 l 3.35,4.12 v -4.12 z"
   id="path34"
   style="fill:#105584" />

		<path
   class="st1"
   d="m 120.09,142.49 c -0.44,-0.13 -0.78,-0.31 -1.04,-0.53 l 0.39,-0.88 c 0.25,0.2 0.55,0.36 0.92,0.48 0.36,0.12 0.73,0.19 1.09,0.19 0.45,0 0.79,-0.07 1.01,-0.22 0.22,-0.14 0.33,-0.34 0.33,-0.57 0,-0.17 -0.06,-0.32 -0.19,-0.43 -0.12,-0.11 -0.28,-0.2 -0.47,-0.27 -0.19,-0.06 -0.45,-0.14 -0.78,-0.22 -0.46,-0.11 -0.84,-0.22 -1.12,-0.33 -0.29,-0.11 -0.53,-0.28 -0.74,-0.52 -0.21,-0.23 -0.31,-0.55 -0.31,-0.95 0,-0.34 0.09,-0.64 0.27,-0.92 0.18,-0.27 0.46,-0.49 0.83,-0.66 0.37,-0.16 0.82,-0.24 1.35,-0.24 0.37,0 0.74,0.05 1.09,0.14 0.36,0.09 0.67,0.23 0.93,0.4 l -0.36,0.88 c -0.27,-0.16 -0.54,-0.28 -0.83,-0.36 -0.29,-0.08 -0.57,-0.12 -0.84,-0.12 -0.45,0 -0.78,0.08 -0.99,0.23 -0.22,0.15 -0.33,0.35 -0.33,0.6 0,0.17 0.06,0.32 0.19,0.43 0.12,0.11 0.28,0.2 0.47,0.26 0.19,0.06 0.45,0.14 0.78,0.22 0.45,0.1 0.82,0.21 1.11,0.33 0.29,0.11 0.54,0.29 0.74,0.52 0.2,0.23 0.31,0.54 0.31,0.94 0,0.34 -0.09,0.64 -0.27,0.91 -0.18,0.27 -0.46,0.49 -0.83,0.65 -0.37,0.16 -0.82,0.24 -1.35,0.24 -0.47,0 -0.93,-0.07 -1.36,-0.2 z"
   id="path36"
   style="fill:#105584" />

		<path
   class="st1"
   d="m 128.39,137.47 h -2.02 v -0.95 h 5.16 v 0.95 h -2.01 v 5.12 h -1.13 z"
   id="path38"
   style="fill:#105584" />

		<path
   class="st1"
   d="m 138.59,142.6 -1.24,-1.78 c -0.05,0.01 -0.13,0.01 -0.24,0.01 h -1.37 v 1.77 h -1.13 v -6.08 h 2.5 c 0.53,0 0.99,0.09 1.38,0.26 0.39,0.17 0.69,0.42 0.9,0.75 0.21,0.33 0.31,0.71 0.31,1.15 0,0.46 -0.11,0.85 -0.33,1.18 -0.22,0.33 -0.54,0.58 -0.96,0.74 l 1.4,2 z m -0.41,-4.81 c -0.25,-0.21 -0.63,-0.31 -1.12,-0.31 h -1.32 v 2.42 h 1.32 c 0.49,0 0.87,-0.11 1.12,-0.32 0.26,-0.21 0.38,-0.51 0.38,-0.9 0,-0.39 -0.13,-0.68 -0.38,-0.89 z"
   id="path40"
   style="fill:#105584" />

		<path
   class="st1"
   d="m 143.83,141.98 c -0.47,-0.47 -0.7,-1.15 -0.7,-2.03 v -3.43 h 1.13 v 3.39 c 0,1.19 0.52,1.79 1.55,1.79 1.02,0 1.54,-0.6 1.54,-1.79 v -3.39 h 1.11 v 3.43 c 0,0.88 -0.23,1.56 -0.7,2.03 -0.47,0.47 -1.12,0.71 -1.96,0.71 -0.85,0 -1.5,-0.24 -1.97,-0.71 z"
   id="path42"
   style="fill:#105584" />

		<path
   class="st1"
   d="m 153.38,137.47 h -2.02 v -0.95 h 5.16 v 0.95 h -2.01 v 5.12 h -1.13 z"
   id="path44"
   style="fill:#105584" />

		<path
   class="st1"
   d="m 160.67,142.28 c -0.5,-0.27 -0.89,-0.64 -1.17,-1.12 -0.28,-0.48 -0.43,-1.01 -0.43,-1.6 0,-0.59 0.14,-1.12 0.43,-1.6 0.28,-0.48 0.67,-0.85 1.17,-1.12 0.5,-0.27 1.06,-0.4 1.68,-0.4 0.62,0 1.18,0.13 1.68,0.4 0.5,0.27 0.89,0.64 1.17,1.12 0.28,0.48 0.43,1.01 0.43,1.61 0,0.6 -0.14,1.13 -0.43,1.61 -0.28,0.48 -0.68,0.85 -1.17,1.12 -0.5,0.27 -1.06,0.4 -1.68,0.4 -0.62,-0.01 -1.18,-0.15 -1.68,-0.42 z m 2.77,-0.86 c 0.32,-0.18 0.58,-0.44 0.76,-0.76 0.19,-0.33 0.28,-0.69 0.28,-1.1 0,-0.4 -0.09,-0.77 -0.28,-1.1 -0.19,-0.33 -0.44,-0.58 -0.76,-0.76 -0.32,-0.18 -0.69,-0.27 -1.09,-0.27 -0.41,0 -0.77,0.09 -1.09,0.27 -0.32,0.18 -0.58,0.44 -0.76,0.76 -0.19,0.33 -0.28,0.69 -0.28,1.1 0,0.41 0.09,0.77 0.28,1.1 0.18,0.33 0.44,0.58 0.76,0.76 0.32,0.18 0.69,0.27 1.09,0.27 0.4,0.01 0.76,-0.09 1.09,-0.27 z"
   id="path46"
   style="fill:#105584" />

		<path
   class="st1"
   d="m 173.02,142.6 -1.24,-1.78 c -0.05,0.01 -0.13,0.01 -0.24,0.01 h -1.37 v 1.77 h -1.13 v -6.08 h 2.5 c 0.53,0 0.99,0.09 1.38,0.26 0.39,0.17 0.69,0.42 0.9,0.75 0.21,0.33 0.31,0.71 0.31,1.15 0,0.46 -0.11,0.85 -0.33,1.18 -0.22,0.33 -0.54,0.58 -0.96,0.74 l 1.4,2 z m -0.41,-4.81 c -0.25,-0.21 -0.63,-0.31 -1.12,-0.31 h -1.32 v 2.42 h 1.32 c 0.49,0 0.87,-0.11 1.12,-0.32 0.26,-0.21 0.38,-0.51 0.38,-0.9 0,-0.39 -0.13,-0.68 -0.38,-0.89 z"
   id="path48"
   style="fill:#105584" />

		<path
   class="st1"
   d="m 181.55,141.19 h -3.04 l -0.6,1.41 h -1.16 l 2.74,-6.08 h 1.11 l 2.74,6.08 h -1.18 z m -0.37,-0.88 -1.15,-2.66 -1.14,2.66 z"
   id="path50"
   style="fill:#105584" />

	</g>

	<path
   class="st2"
   d="m 137.81,88.1 v 0 c -8.49,0 -15.38,-6.88 -15.38,-15.38 0,-8.5 6.88,-15.38 15.38,-15.38 v 0 -15.36 0 c -16.98,0 -30.75,13.77 -30.75,30.75 0,16.98 13.77,30.75 30.75,30.75 v 0 z"
   id="path54"
   style="fill:#7097b0" />

	<path
   class="st3"
   d="M 156.15,61.05"
   id="path56"
   style="fill:none;stroke:#105584;stroke-width:0.3;stroke-miterlimit:10" />

	<path
   class="st3"
   d="M 156.15,84.41"
   id="path58"
   style="fill:none;stroke:#105584;stroke-width:0.3;stroke-miterlimit:10" />

	<path
   class="st3"
   d="M 163.74,89.25"
   id="path60"
   style="fill:none;stroke:#105584;stroke-width:0.3;stroke-miterlimit:10" />

	<path
   class="st3"
   d="M 163.74,56.21"
   id="path62"
   style="fill:none;stroke:#105584;stroke-width:0.3;stroke-miterlimit:10" />

	<path
   class="st1"
   d="M 168.64,103.56 H 106.99 V 41.9 h 61.65 z m -61.51,-0.15 h 61.35 V 42.05 h -61.35 z"
   id="path64"
   style="fill:#105584" />

	<path
   class="st1"
   d="M 159.63,94.55 H 115.99 V 50.91 h 43.64 z M 116.14,94.4 h 43.34 V 51.06 h -43.34 z"
   id="path66"
   style="fill:#105584" />

	<path
   class="st1"
   d="M 163.82,98.74 H 111.8 V 46.72 h 52.01 v 52.02 z m -51.87,-0.16 h 51.71 V 46.87 h -51.71 z"
   id="path68"
   style="fill:#105584" />

	<path
   class="st1"
   d="M 150.84,85.76 H 124.77 V 59.69 h 26.07 z M 124.93,85.61 H 150.7 V 59.85 h -25.77 z"
   id="path70"
   style="fill:#105584" />

	<rect
   x="107.06"
   y="72.650002"
   class="st1"
   width="61.5"
   height="0.15000001"
   id="rect72"
   style="fill:#105584" />

	
		<rect
   x="94.32"
   y="72.650002"
   transform="matrix(0.7071,-0.7071,0.7071,0.7071,-11.0636,118.7479)"
   class="st1"
   width="86.980003"
   height="0.15000001"
   id="rect74"
   style="fill:#105584" />

	
		<rect
   x="137.73"
   y="29.24"
   transform="matrix(0.7071,-0.7071,0.7071,0.7071,-11.0638,118.7473)"
   class="st1"
   width="0.15000001"
   height="86.980003"
   id="rect76"
   style="fill:#105584" />

	
		<rect
   x="101.35"
   y="72.650002"
   transform="matrix(0.5381,-0.8429,0.8429,0.5381,2.3493,149.745)"
   class="st1"
   width="72.919998"
   height="0.15000001"
   id="rect78"
   style="fill:#105584" />

	
		<rect
   x="137.73"
   y="36.27"
   transform="matrix(0.8434,-0.5373,0.5373,0.8434,-17.4951,85.4346)"
   class="st1"
   width="0.15000001"
   height="72.919998"
   id="rect80"
   style="fill:#105584" />

	<g
   id="g86">
		<path
   class="st1"
   d="m 137.81,88.1 v 15.38 c 10.9,0 20.47,-5.68 25.93,-14.23 l -12.97,-8.26 c -2.73,4.28 -7.51,7.11 -12.96,7.11 z"
   id="path82"
   style="fill:#105584" />

		<path
   class="st1"
   d="m 137.81,57.35 c 5.45,0 10.24,2.84 12.97,7.12 l 12.97,-8.26 C 158.29,47.66 148.72,41.98 137.82,41.98 v 15.37 z"
   id="path84"
   style="fill:#105584" />

	</g>

	<path
   class="st1"
   d="m 137.81,103.56 c -17,0 -30.83,-13.83 -30.83,-30.83 0,-17 13.83,-30.83 30.83,-30.83 17,0 30.83,13.83 30.83,30.83 0,17 -13.83,30.83 -30.83,30.83 z m 0,-61.51 c -16.91,0 -30.68,13.76 -30.68,30.68 0,16.92 13.76,30.68 30.68,30.68 16.92,0 30.68,-13.76 30.68,-30.68 0,-16.92 -13.77,-30.68 -30.68,-30.68 z"
   id="path88"
   style="fill:#105584" />

	
		<rect
   x="101.35"
   y="72.650002"
   transform="matrix(0.8429,-0.5381,0.5381,0.8429,-17.4824,85.5886)"
   class="st1"
   width="72.919998"
   height="0.15000001"
   id="rect90"
   style="fill:#105584" />

	<path
   class="st1"
   d="m 137.81,88.18 c -8.52,0 -15.45,-6.93 -15.45,-15.45 0,-8.52 6.93,-15.45 15.45,-15.45 8.52,0 15.45,6.93 15.45,15.45 0,8.52 -6.93,15.45 -15.45,15.45 z m 0,-30.75 c -8.44,0 -15.3,6.86 -15.3,15.3 0,8.44 6.86,15.3 15.3,15.3 8.44,0 15.3,-6.86 15.3,-15.3 0,-8.44 -6.86,-15.3 -15.3,-15.3 z"
   id="path92"
   style="fill:#105584" />

	<rect
   x="137.73"
   y="41.98"
   class="st1"
   width="0.15000001"
   height="61.5"
   id="rect94"
   style="fill:#105584" />

	
		<rect
   x="137.73"
   y="36.27"
   transform="matrix(0.5373,-0.8434,0.8434,0.5373,2.4255,149.879)"
   class="st1"
   width="0.15000001"
   height="72.919998"
   id="rect96"
   style="fill:#105584" />

</g>
  </g>
</svg>
