<?xml version="1.0" encoding="UTF-8" standalone="no"?>
<!-- Created with Inkscape (http://www.inkscape.org/) -->

<svg
   width="16.314209mm"
   height="16.314211mm"
   viewBox="0 0 16.314209 16.314211"
   version="1.1"
   id="svg1909"
   xmlns="http://www.w3.org/2000/svg"
   xmlns:svg="http://www.w3.org/2000/svg">
  <defs
     id="defs1906" />
  <g
     id="layer1"
     transform="translate(20.504295,-124.65863)">
    <path
       class="st2"
       d="m -12.347191,136.88238 v 0 c -2.246312,0 -4.069291,-1.82033 -4.069291,-4.06929 0,-2.24896 1.820333,-4.06929 4.069291,-4.06929 v 0 -4.064 0 c -4.492625,0 -8.135937,3.64331 -8.135937,8.13593 0,4.49263 3.643312,8.13594 8.135937,8.13594 v 0 z"
       id="path1500"
       style="fill:#7097b0;stroke-width:0.264583" />
    <path
       class="st3"
       d="M -7.4947323,129.7254"
       id="path1502"
       style="fill:none;stroke:#105584;stroke-width:0.079375;stroke-miterlimit:10" />
    <path
       class="st3"
       d="M -7.4947323,135.90607"
       id="path1504"
       style="fill:none;stroke:#105584;stroke-width:0.079375;stroke-miterlimit:10" />
    <path
       class="st3"
       d="M -5.4865448,137.18665"
       id="path1506"
       style="fill:none;stroke:#105584;stroke-width:0.079375;stroke-miterlimit:10" />
    <path
       class="st3"
       d="M -5.4865448,128.44482"
       id="path1508"
       style="fill:none;stroke:#105584;stroke-width:0.079375;stroke-miterlimit:10" />
    <path
       class="st1"
       d="M -4.1900865,140.97284 H -20.501649 v -16.31421 h 16.3115625 z m -16.2745205,-0.0397 H -4.2324199 V 124.69832 H -20.464607 Z"
       id="path1510"
       style="fill:#105584;stroke-width:0.264583" />
    <path
       class="st1"
       d="M -6.5739823,138.58894 H -18.120399 v -11.54641 h 11.5464167 z m -11.5067287,-0.0397 H -6.6136698 V 127.08221 H -18.080711 Z"
       id="path1512"
       style="fill:#105584;stroke-width:0.264583" />
    <path
       class="st1"
       d="M -5.4653782,139.69755 H -19.229003 v -13.76363 h 13.760979 v 13.76363 z m -13.7239368,-0.0423 h 13.6816035 v -13.6816 H -19.189315 Z"
       id="path1514"
       style="fill:#105584;stroke-width:0.264583" />
    <path
       class="st1"
       d="m -8.8996698,136.26325 h -6.8976872 v -6.89768 h 6.8976872 z m -6.8553542,-0.0397 h 6.8183125 v -6.81567 h -6.8183125 z"
       id="path1516"
       style="fill:#105584;stroke-width:0.264583" />
    <rect
       x="-20.483131"
       y="132.79457"
       class="st1"
       width="16.271875"
       height="0.039687499"
       id="rect1518"
       style="fill:#105584;stroke-width:0.264583" />
    <rect
       x="-114.15242"
       y="85.162781"
       transform="rotate(-45)"
       class="st1"
       width="23.013239"
       height="0.039687119"
       id="rect1520"
       style="fill:#105584;stroke-width:0.264581" />
    <rect
       x="-102.66689"
       y="73.677177"
       transform="rotate(-45)"
       class="st1"
       width="0.039687119"
       height="23.013239"
       id="rect1522"
       style="fill:#105584;stroke-width:0.264581" />
    <rect
       x="-128.2375"
       y="61.037037"
       transform="rotate(-57.446195)"
       class="st1"
       width="19.293724"
       height="0.039688136"
       id="rect1524"
       style="fill:#105584;stroke-width:0.264589" />
    <rect
       x="-81.79567"
       y="95.735268"
       transform="rotate(-32.499756)"
       class="st1"
       width="0.039687797"
       height="19.29356"
       id="rect1526"
       style="fill:#105584;stroke-width:0.264586" />
    <g
       id="g1532"
       transform="matrix(0.26458333,0,0,0.26458333,-48.80942,113.57259)">
		<path
   class="st1"
   d="m 137.81,88.1 v 15.38 c 10.9,0 20.47,-5.68 25.93,-14.23 l -12.97,-8.26 c -2.73,4.28 -7.51,7.11 -12.96,7.11 z"
   id="path1528"
   style="fill:#105584" />

		<path
   class="st1"
   d="m 137.81,57.35 c 5.45,0 10.24,2.84 12.97,7.12 l 12.97,-8.26 C 158.29,47.66 148.72,41.98 137.82,41.98 v 15.37 z"
   id="path1530"
   style="fill:#105584" />

	</g>
    <path
       class="st1"
       d="m -12.347191,140.97284 c -4.497916,0 -8.157104,-3.65919 -8.157104,-8.15711 0,-4.49791 3.659188,-8.1571 8.157104,-8.1571 4.497917,0 8.1571045,3.65919 8.1571045,8.1571 0,4.49792 -3.6591875,8.15711 -8.1571045,8.15711 z m 0,-16.27452 c -4.474104,0 -8.117416,3.64066 -8.117416,8.11741 0,4.47675 3.640666,8.11742 8.117416,8.11742 4.4767504,0 8.117417,-3.64067 8.117417,-8.11742 0,-4.47675 -3.6433125,-8.11741 -8.117417,-8.11741 z"
       id="path1534"
       style="fill:#105584;stroke-width:0.264583" />
    <rect
       x="-91.521347"
       y="105.28562"
       transform="rotate(-32.553805)"
       class="st1"
       width="19.293724"
       height="0.039688136"
       id="rect1536"
       style="fill:#105584;stroke-width:0.264589" />
    <path
       class="st1"
       d="m -12.347191,136.90355 c -2.25425,0 -4.087812,-1.83357 -4.087812,-4.08782 0,-2.25425 1.833562,-4.08781 4.087812,-4.08781 2.25425,0 4.0878129,1.83356 4.0878129,4.08781 0,2.25425 -1.8335629,4.08782 -4.0878129,4.08782 z m 0,-8.13594 c -2.233083,0 -4.048125,1.81504 -4.048125,4.04812 0,2.23309 1.815042,4.04813 4.048125,4.04813 2.233084,0 4.0481254,-1.81504 4.0481254,-4.04813 0,-2.23308 -1.8150414,-4.04812 -4.0481254,-4.04812 z"
       id="path1538"
       style="fill:#105584;stroke-width:0.264583" />
    <rect
       x="-12.36836"
       y="124.67979"
       class="st1"
       width="0.039687499"
       height="16.271875"
       id="rect1540"
       style="fill:#105584;stroke-width:0.264583" />
    <rect
       x="-118.67056"
       y="51.301029"
       transform="rotate(-57.500244)"
       class="st1"
       width="0.039687797"
       height="19.29356"
       id="rect1542"
       style="fill:#105584;stroke-width:0.264586" />
  </g>
</svg>
