<?xml version="1.0" encoding="UTF-8" standalone="no"?>
<!-- Created with Inkscape (http://www.inkscape.org/) -->

<svg
   width="16.31167mm"
   height="16.314251mm"
   viewBox="0 0 16.31167 16.314251"
   version="1.1"
   id="svg1285"
   sodipodi:docname="logographics.svg"
   inkscape:version="1.2.2 (732a01da63, 2022-12-09)"
   xmlns:inkscape="http://www.inkscape.org/namespaces/inkscape"
   xmlns:sodipodi="http://sodipodi.sourceforge.net/DTD/sodipodi-0.dtd"
   xmlns="http://www.w3.org/2000/svg"
   xmlns:svg="http://www.w3.org/2000/svg">
  <sodipodi:namedview
     id="namedview1392"
     pagecolor="#ffffff"
     bordercolor="#000000"
     borderopacity="0.25"
     inkscape:showpageshadow="2"
     inkscape:pageopacity="0.0"
     inkscape:pagecheckerboard="0"
     inkscape:deskcolor="#d1d1d1"
     inkscape:document-units="mm"
     showgrid="false"
     inkscape:zoom="14.280657"
     inkscape:cx="46.566483"
     inkscape:cy="18.241457"
     inkscape:window-width="1920"
     inkscape:window-height="1051"
     inkscape:window-x="-9"
     inkscape:window-y="-9"
     inkscape:window-maximized="1"
     inkscape:current-layer="layer1" />
  <defs
     id="defs1282" />
  <g
     id="layer1"
     transform="translate(-147.68574,-206.08332)">
    <path
       class="st3"
       d="M 160.69256,211.15009"
       id="path56"
       style="fill:none;stroke:#105584;stroke-width:0.079375;stroke-miterlimit:10" />
    <path
       class="st3"
       d="M 160.69256,217.33076"
       id="path58"
       style="fill:none;stroke:#105584;stroke-width:0.079375;stroke-miterlimit:10" />
    <path
       class="st3"
       d="M 162.70074,218.61134"
       id="path60"
       style="fill:none;stroke:#105584;stroke-width:0.079375;stroke-miterlimit:10" />
    <path
       class="st3"
       d="M 162.70074,209.86951"
       id="path62"
       style="fill:none;stroke:#105584;stroke-width:0.079375;stroke-miterlimit:10" />
    <path
       id="path64"
       style="fill:#105584;stroke-width:0.264583"
       class="st1"
       d="m 147.68574,206.08332 v 16.31425 h 16.31167 v -16.31425 z m 0.0367,0.0398 h 16.23261 v 16.23467 h -16.23261 z" />
    <path
       id="path68"
       style="fill:#105584;stroke-width:0.264583"
       class="st1"
       d="m 148.95854,207.3587 v 13.7635 h 13.76091 v -13.7635 h -4.20233 c 0.004,0.0132 0.008,0.0266 0.0119,0.0398 h 4.15065 v 13.68133 H 148.99783 V 207.3985 h 3.89434 c 0.005,-0.0132 0.01,-0.0266 0.015,-0.0398 z" />
    <path
       id="rect72"
       style="fill:#105584;stroke-width:0.264583"
       class="st1"
       d="m 147.70435,214.21926 v 0.0398 h 1.73529 c 5.3e-4,-0.0133 0.002,-0.0265 0.003,-0.0398 z m 14.56913,0 c -0.001,0.0132 -0.002,0.0265 -0.003,0.0398 h 1.70532 v -0.0398 z" />
    <path
       id="rect74"
       style="fill:#105584;stroke-width:0.264581"
       class="st1"
       d="m 163.96124,206.089 -1.29164,1.29788 c 0.01,0.009 0.0197,0.0178 0.0295,0.0269 l 1.29061,-1.29685 z m -12.32431,12.32431 -3.9486,3.9486 0.0284,0.0279 3.94963,-3.94963 c -0.01,-0.009 -0.0195,-0.018 -0.0295,-0.0268 z"
       sodipodi:nodetypes="ccccccccccc" />
    <path
       id="rect76"
       style="fill:#105584;stroke-width:0.264581"
       class="st1"
       d="m 147.71675,206.09056 -0.0284,0.0284 1.26708,1.29201 c 0.008,-0.0109 0.016,-0.0216 0.0238,-0.0326 z m 12.5274,12.5274 c -0.009,0.009 -0.0189,0.0187 -0.0284,0.0279 l 3.74551,3.74551 0.0279,-0.0279 z"
       sodipodi:nodetypes="cccccccccc" />
    <path
       id="rect78"
       style="fill:#105584;stroke-width:0.264588"
       class="st1"
       d="m 161.0131,206.09521 -0.91927,1.2438 c 0.006,0.0147 0.0124,0.0293 0.0186,0.0439 l 0.93374,-1.26603 z m -8.36125,13.09791 -2.02054,3.16466 0.0331,0.0212 2.01848,-3.16157 c -0.002,-0.002 -0.004,-0.003 -0.007,-0.005 -0.008,-0.007 -0.0161,-0.0128 -0.0243,-0.0191 z"
       sodipodi:nodetypes="cccccccccccc" />
    <path
       id="rect80"
       style="fill:#105584;stroke-width:0.264585"
       class="st1"
       d="m 150.67316,206.09417 -0.0336,0.0217 0.7459,1.28237 c 0.007,-0.0135 0.0147,-0.0267 0.0217,-0.0403 z m 8.43359,13.23847 c -0.0122,0.005 -0.0245,0.0109 -0.0367,0.0165 l 1.9358,3.03857 0.0336,-0.0212 z"
       sodipodi:nodetypes="cccccccccc" />
    <path
       id="rect90"
       style="fill:#105584;stroke-width:0.264588"
       class="st1"
       d="m 163.96072,209.03353 -1.2786,1.02608 c 0.0128,0.008 0.0258,0.0148 0.0388,0.0222 l 1.26154,-1.01472 z m -13.18472,8.41706 -3.07733,1.96474 0.0212,0.0336 3.07682,-1.96422 c -0.007,-0.0111 -0.0139,-0.0227 -0.0206,-0.0342 z"
       sodipodi:nodetypes="ccccccccccc" />
    <path
       id="rect96"
       style="fill:#105584;stroke-width:0.264585"
       class="st1"
       d="m 147.71417,209.04127 -0.0212,0.0331 1.26682,1.1361 c 0.008,-0.0103 0.0162,-0.0207 0.0243,-0.031 z m 13.17749,8.39484 c -0.004,0.0133 -0.007,0.0265 -0.0109,0.0398 l 3.08405,1.96474 0.0217,-0.0331 z"
       sodipodi:nodetypes="cccccccccc" />
    <path
       id="path66"
       style="fill:#105584;stroke-width:0.264583"
       class="st1"
       d="m 150.10678,216.54104 c -0.0135,0.005 -0.0266,0.0108 -0.0398,0.0165 v 3.45617 c 2.88102,0.0129 2.87597,-0.0443 0.0398,-0.0398 z m 11.50628,-0.0139 c -0.004,0.004 -0.007,0.009 -0.0108,0.0129 -0.009,0.0101 -0.019,0.0192 -0.0284,0.0289 v 3.40496 c -2.84046,-0.0119 -2.84096,0.0443 0.0393,0.0398 z"
       sodipodi:nodetypes="ccccccccccc" />
  </g>
</svg>
